name Run_400 02_newCOP3_v24.mot
datacolumns 19
datarows 149
range 4.108 4.256
DataType=double
version=3
OpenSimVersion=4.3-2021-08-27-4bc7ad9
endheader
time	R_ground_force_vx	R_ground_force_vy	R_ground_force_vz	R_ground_force_px	R_ground_force_py	R_ground_force_pz	L_ground_force_vx	L_ground_force_vy	L_ground_force_vz	L_ground_force_px	L_ground_force_py	L_ground_force_pz	R_ground_torque_x	R_ground_torque_y	R_ground_torque_z	L_ground_torque_x	L_ground_torque_y	L_ground_torque_z
4.108	0	0	0	0	0	0	197.284225	814.9902949999999	0.736969	0.476674	0	-0.353136	0	0	0	0	-0.472672	0
4.109	0	0	0	0	0	0	196.765213	795.982666	-0.128914	0.473241	0	-0.352865	0	0	0	0	-0.351305	0
4.11	0	0	0	0	0	0	196.047043	776.947327	-1.005036	0.469798	0	-0.352599	0	0	0	0	-0.224917	0
4.111	0	0	0	0	0	0	195.138748	757.893066	-1.888993	0.466345	0	-0.352338	0	0	0	0	-0.094001	0
4.112	0	0	0	0	0	0	194.050034	738.829346	-2.777255	0.462881	0	-0.352084	0	0	0	-0	0.040868	-0
4.113	0	0	0	0	0	0	192.791199	719.765991	-3.665299	0.459404	0	-0.351835	0	0	0	-0	0.179026	-0
4.114	0	0	0	0	0	0	191.372971	700.7136839999999	-4.547773	0.455914	0	-0.351593	0	0	0	-0	0.319725	-0
4.115	0	0	0	0	0	0	189.80632	681.683716	-5.418683	0.452408	0	-0.351357	0	0	0	-0	0.462138	-0
4.116	0	0	0	0	0	0	188.102402	662.688232	-6.271587	0.448886	0	-0.351127	0	0	0	-0	0.60536	-0
4.117	0	0	0	0	0	0	186.272324	643.7402949999999	-7.099809	0.445348	0	-0.350904	0	0	0	-0	0.748416	-0
4.118	0	0	0	0	0	0	184.327026	624.853882	-7.896637	0.441792	0	-0.350687	0	0	0	-0	0.890269	-0
4.119	0	0	0	0	0	0	182.277115	606.044006	-8.655526999999999	0.438217	0	-0.350477	0	0	0	-0	1.029825	-0
4.12	0	0	0	0	0	0	180.13269	587.326477	-9.370283000000001	0.434624	0	-0.350272	0	0	0	-0	1.165946	-0
4.121	0	0	0	0	0	0	177.903229	568.7181399999999	-10.035221	0.431011	0	-0.350072	0	0	0	-0	1.297459	-0
4.122	0	0	0	0	0	0	175.597382	550.236511	-10.645313	0.42738	0	-0.349878	0	0	0	-0	1.423168	-0
4.123	0	0	0	0	0	0	173.2229	531.899841	-11.196301	0.423729	0	-0.349688	0	0	0	-0	1.541867	-0
4.124	0	0	0	0	0	0	170.786392	513.726929	-11.684779	0.420061	0	-0.349502	0	0	0	-0	1.652351	-0
4.125	0	0	0	0	0	0	168.29332	495.737	-12.108252	0.416374	0	-0.349319	0	0	0	-0	1.753431	-0
4.126	0	0	0	0	0	0	165.747879	477.949341	-12.465162	0.412671	0	-0.349139	0	0	0	-0	1.843952	-0
4.127	0	0	0	0	0	0	163.152893	460.383301	-12.754891	0.408952	0	-0.348959	0	0	0	-0	1.9228	-0
4.128	0	0	0	0	0	0	160.509827	443.057983	-12.977731	0.40522	0	-0.348779	0	0	0	-0	1.988925	-0
4.129	0	0	0	0	0	0	157.818802	425.991974	-13.134838	0.401475	0	-0.348598	0	0	0	-0	2.041349	-0
4.13	0	0	0	0	0	0	155.078644	409.203369	-13.228165	0.397721	0	-0.348413	0	0	0	-0	2.079183	-0
4.131	0	0	0	0	0	0	152.287018	392.709259	-13.260373	0.393959	0	-0.348224	0	0	0	-0	2.101644	-0
4.132	0	0	0	0	0	0	149.440552	376.525787	-13.234736	0.390192	0	-0.348028	0	0	0	-0	2.108061	-0
4.133	0	0	0	0	0	0	146.535019	360.667877	-13.155029	0.386424	0	-0.347823	0	0	0	-0	2.097895	-0
4.134	0	0	0	0	0	0	143.565628	345.14917	-13.025409	0.382656	0	-0.347607	0	0	0	-0	2.070747	-0
4.135	0	0	0	0	0	0	140.527283	329.98175	-12.850288	0.378892	0	-0.347377	0	0	0	-0	2.026366	-0
4.136	0	0	0	0	0	0	137.414841	315.176178	-12.634214	0.375136	0	-0.347131	0	0	0	-0	1.964665	-0
4.137	0	0	0	0	0	0	134.223434	300.741486	-12.381736	0.371392	0	-0.346864	0	0	0	-0	1.885721	-0
4.138	0	0	0	0	0	0	130.948807	286.684906	-12.097285	0.367663	0	-0.346573	0	0	0	-0	1.789783	-0
4.139	0	0	0	0	0	0	127.58754	273.012146	-11.785068	0.363954	0	-0.346254	0	0	0	-0	1.677279	-0
4.14	0	0	0	0	0	0	124.137367	259.727203	-11.448954	0.360268	0	-0.345903	0	0	0	-0	1.548815	-0
4.141	0	0	0	0	0	0	120.597359	246.832535	-11.0924	0.356611	0	-0.345514	0	0	0	-0	1.405173	-0
4.142	0	0	0	0	0	0	116.968132	234.329102	-10.718384	0.352987	0	-0.345081	0	0	0	-0	1.247314	-0
4.143	0	0	0	0	0	0	113.251953	222.216492	-10.329369	0.349401	0	-0.344598	0	0	0	-0	1.076371	-0
4.144	0	0	0	0	0	0	109.452797	210.493103	-9.927292	0.34586	0	-0.344056	0	0	0	-0	0.893639	-0
4.145	0	0	0	0	0	0	105.576401	199.156204	-9.513584	0.342371	0	-0.343446	0	0	0	-0	0.700573	-0
4.146	0	0	0	0	0	0	101.630196	188.202209	-9.089226999999999	0.338941	0	-0.342759	0	0	0	-0	0.49877	-0
4.147	0	0	0	0	0	0	97.623238	177.626785	-8.654826	0.33558	0	-0.341981	0	0	0	-0	0.28996	-0
4.148	0	0	0	0	0	0	93.566078	167.425125	-8.210722000000001	0.332298	0	-0.341098	0	0	0	-0	0.075989	-0
4.149	0	0	0	0	0	0	89.470612	157.592041	-7.757117	0.329111	0	-0.340092	0	0	0	0	-0.141199	0
4.15	0	0	0	0	0	0	85.349884	148.122238	-7.294215	0.326036	0	-0.338944	0	0	0	0	-0.359581	0
4.151	0	0	0	0	0	0	81.217918	139.010391	-6.82237	0.323095	0	-0.337629	0	0	0	0	-0.577075	0
4.152	0	0	0	0	0	0	77.08947000000001	130.251419	-6.342229	0.320318	0	-0.336116	0	0	0	0	-0.791564	0
4.153	0	0	0	0	0	0	72.979828	121.840485	-5.854867	0.317742	0	-0.334369	0	0	0	0	-1.000922	0
4.154	0	0	0	0	0	0	68.904602	113.773193	-5.36189	0.315418	0	-0.332342	0	0	0	0	-1.203035	0
4.155	0	0	0	0	0	0	64.879486	106.045616	-4.865519	0.313411	0	-0.329982	0	0	0	0	-1.395831	0
4.156	0	0	0	0	0	0	60.92004	98.654358	-4.368635	0.311809	0	-0.327218	0	0	0	0	-1.577303	0
4.157	0	0	0	0	0	0	57.041492	91.59652699999999	-3.874782	0.310728	0	-0.323964	0	0	0	0	-1.745538	0
4.158	0	0	0	0	0	0	53.258514	84.869713	-3.388127	0.310324	0	-0.320109	0	0	0	0	-1.898743	0
4.159	0	0	0	0	0	0	49.585022	78.471909	-2.913388	0.31081	0	-0.315512	0	0	0	0	-2.035271	0
4.16	0	0	0	0	0	0	46.033985	72.401382	-2.455705	0.312471	0	-0.309992	0	0	0	0	-2.153643	0
4.161	0	0	0	0	0	0	42.617229	66.65654000000001	-2.020499	0.315703	0	-0.303312	0	0	0	0	-2.252578	0
4.162	0	0	0	0	0	0	39.345295	61.235729	-1.613287	0.321049	0	-0.295159	0	0	0	0	-2.331005	0
4.163	0	0	0	0	0	0	36.227261	56.137039	-1.239486	0.329267	0	-0.285118	0	0	0	0	-2.388093	0
4.164	0	0	0	0	0	0	33.270634	51.358086	-0.904203	0.341422	0	-0.272629	0	0	0	0	-2.423259	0
4.165	0	0	0	0	0	0	0	0	0	0	0	0	0	0	0	0	0	0
4.166	0	0	0	0	0	0	0	0	0	0	0	0	0	0	0	0	0	0
4.167	0	0	0	0	0	0	0	0	0	0	0	0	0	0	0	0	0	0
4.168	0	0	0	0	0	0	0	0	0	0	0	0	0	0	0	0	0	0
4.169	0	0	0	0	0	0	0	0	0	0	0	0	0	0	0	0	0	0
4.17	0	0	0	0	0	0	0	0	0	0	0	0	0	0	0	0	0	0
4.171	0	0	0	0	0	0	0	0	0	0	0	0	0	0	0	0	0	0
4.172	0	0	0	0	0	0	0	0	0	0	0	0	0	0	0	0	0	0
4.173	0	0	0	0	0	0	0	0	0	0	0	0	0	0	0	0	0	0
4.174	0	0	0	0	0	0	0	0	0	0	0	0	0	0	0	0	0	0
4.175	0	0	0	0	0	0	0	0	0	0	0	0	0	0	0	0	0	0
4.176	0	0	0	0	0	0	0	0	0	0	0	0	0	0	0	0	0	0
4.177	0	0	0	0	0	0	0	0	0	0	0	0	0	0	0	0	0	0
4.178	0	0	0	0	0	0	0	0	0	0	0	0	0	0	0	0	0	0
4.179	0	0	0	0	0	0	0	0	0	0	0	0	0	0	0	0	0	0
4.18	0	0	0	0	0	0	0	0	0	0	0	0	0	0	0	0	0	0
4.181	0	0	0	0	0	0	0	0	0	0	0	0	0	0	0	0	0	0
4.182	0	0	0	0	0	0	0	0	0	0	0	0	0	0	0	0	0	0
4.183	0	0	0	0	0	0	0	0	0	0	0	0	0	0	0	0	0	0
4.184	0	0	0	0	0	0	0	0	0	0	0	0	0	0	0	0	0	0
4.185	0	0	0	0	0	0	0	0	0	0	0	0	0	0	0	0	0	0
4.186	0	0	0	0	0	0	0	0	0	0	0	0	0	0	0	0	0	0
4.187	0	0	0	0	0	0	0	0	0	0	0	0	0	0	0	0	0	0
4.188	0	0	0	0	0	0	0	0	0	0	0	0	0	0	0	0	0	0
4.189	0	0	0	0	0	0	0	0	0	0	0	0	0	0	0	0	0	0
4.19	0	0	0	0	0	0	0	0	0	0	0	0	0	0	0	0	0	0
4.191	0	0	0	0	0	0	0	0	0	0	0	0	0	0	0	0	0	0
4.192	0	0	0	0	0	0	0	0	0	0	0	0	0	0	0	0	0	0
4.193	0	0	0	0	0	0	0	0	0	0	0	0	0	0	0	0	0	0
4.194	0	0	0	0	0	0	0	0	0	0	0	0	0	0	0	0	0	0
4.195	0	0	0	0	0	0	0	0	0	0	0	0	0	0	0	0	0	0
4.196	0	0	0	0	0	0	0	0	0	0	0	0	0	0	0	0	0	0
4.197	0	0	0	0	0	0	0	0	0	0	0	0	0	0	0	0	0	0
4.198	0	0	0	0	0	0	0	0	0	0	0	0	0	0	0	0	0	0
4.199	0	0	0	0	0	0	0	0	0	0	0	0	0	0	0	0	0	0
4.2	0	0	0	0	0	0	0	0	0	0	0	0	0	0	0	0	0	0
4.201	0	0	0	0	0	0	0	0	0	0	0	0	0	0	0	0	0	0
4.202	0	0	0	0	0	0	0	0	0	0	0	0	0	0	0	0	0	0
4.203	0	0	0	0	0	0	0	0	0	0	0	0	0	0	0	0	0	0
4.204	0	0	0	0	0	0	0	0	0	0	0	0	0	0	0	0	0	0
4.205	0	0	0	0	0	0	0	0	0	0	0	0	0	0	0	0	0	0
4.206	0	0	0	0	0	0	0	0	0	0	0	0	0	0	0	0	0	0
4.207	0	0	0	0	0	0	0	0	0	0	0	0	0	0	0	0	0	0
4.208	0	0	0	0	0	0	0	0	0	0	0	0	0	0	0	0	0	0
4.209	0	0	0	0	0	0	0	0	0	0	0	0	0	0	0	0	0	0
4.21	0	0	0	0	0	0	0	0	0	0	0	0	0	0	0	0	0	0
4.211	0	0	0	0	0	0	0	0	0	0	0	0	0	0	0	0	0	0
4.212	0	0	0	0	0	0	0	0	0	0	0	0	0	0	0	0	0	0
4.213	0	0	0	0	0	0	0	0	0	0	0	0	0	0	0	0	0	0
4.214	0	0	0	0	0	0	0	0	0	0	0	0	0	0	0	0	0	0
4.215	0	0	0	0	0	0	0	0	0	0	0	0	0	0	0	0	0	0
4.216	0	0	0	0	0	0	0	0	0	0	0	0	0	0	0	0	0	0
4.217	0	0	0	0	0	0	0	0	0	0	0	0	0	0	0	0	0	0
4.218	0	0	0	0	0	0	0	0	0	0	0	0	0	0	0	0	0	0
4.219	0	0	0	0	0	0	0	0	0	0	0	0	0	0	0	0	0	0
4.22	0	0	0	0	0	0	0	0	0	0	0	0	0	0	0	0	0	0
4.221	0	0	0	0	0	0	0	0	0	0	0	0	0	0	0	0	0	0
4.222	0	0	0	0	0	0	0	0	0	0	0	0	0	0	0	0	0	0
4.223	0	0	0	0	0	0	0	0	0	0	0	0	0	0	0	0	0	0
4.224	0	0	0	0	0	0	0	0	0	0	0	0	0	0	0	0	0	0
4.225	0	0	0	0	0	0	0	0	0	0	0	0	0	0	0	0	0	0
4.226	0	0	0	0	0	0	0	0	0	0	0	0	0	0	0	0	0	0
4.227	0	0	0	0	0	0	0	0	0	0	0	0	0	0	0	0	0	0
4.228	0	0	0	0	0	0	0	0	0	0	0	0	0	0	0	0	0	0
4.229	0	0	0	0	0	0	0	0	0	0	0	0	0	0	0	0	0	0
4.23	0	0	0	0	0	0	0	0	0	0	0	0	0	0	0	0	0	0
4.231	0	0	0	0	0	0	0	0	0	0	0	0	0	0	0	0	0	0
4.232	0	0	0	0	0	0	0	0	0	0	0	0	0	0	0	0	0	0
4.233	0	0	0	0	0	0	0	0	0	0	0	0	0	0	0	0	0	0
4.234	0	0	0	0	0	0	0	0	0	0	0	0	0	0	0	0	0	0
4.235	0	0	0	0	0	0	0	0	0	0	0	0	0	0	0	0	0	0
4.236	0	0	0	0	0	0	0	0	0	0	0	0	0	0	0	0	0	0
4.237	0	0	0	0	0	0	0	0	0	0	0	0	0	0	0	0	0	0
4.238	0	0	0	0	0	0	0	0	0	0	0	0	0	0	0	0	0	0
4.239	0	0	0	0	0	0	0	0	0	0	0	0	0	0	0	0	0	0
4.24	0	0	0	0	0	0	0	0	0	0	0	0	0	0	0	0	0	0
4.241	-19.323481	53.193413	-3.338796	0.843681	0	-0.41342	0	0	0	0	0	0	0	-0.343666	0	0	0	0
4.242	-20.492147	59.439762	-4.021674	0.768005	0	-0.67036	0	0	0	0	0	0	0	-0.314335	0	0	0	0
4.243	-21.661222	66.358566	-4.766171	0.986751	0	0.083597	0	0	0	0	0	0	0	-0.285629	0	0	0	0
4.244	-22.823605	74.004158	-5.567581	0.914718	0	-0.161202	0	0	0	0	0	0	0	-0.257084	0	0	0	0
4.245	-23.972141	82.431816	-6.420039	0.899622	0	-0.21062	0	0	0	0	0	0	0	-0.228243	0	0	0	0
4.246	-25.099827	91.697121	-7.316543	0.892815	0	-0.231707	0	0	0	0	0	0	0	-0.198669	0	0	0	0
4.247	-26.200022	101.855209	-8.248987	0.8888	0	-0.243323	0	0	0	0	0	0	0	-0.167959	0	0	0	0
4.248	-27.266695	112.959953	-9.208206000000001	0.886069	0	-0.250632	0	0	0	0	0	0	0	-0.135753	0	0	0	0
4.249	-28.294678	125.06308	-10.184029	0.884039	0	-0.255625	0	0	0	0	0	0	0	-0.101748	0	0	0	0
4.25	-29.279938	138.213211	-11.165347	0.882436	0	-0.25923	0	0	0	0	0	0	0	-0.065706	0	0	0	0
4.251	-30.219828	152.454865	-12.140212	0.881114	0	-0.26194	0	0	0	0	0	0	0	-0.027456	0	0	0	0
4.252	-31.11335	167.827469	-13.095929	0.879988	0	-0.26404	0	0	0	0	0	0	-0	0.013098	-0	0	0	0
4.253	-31.961372	184.36438	-14.019191	0.879003	0	-0.265705	0	0	0	0	0	0	-0	0.055974	-0	0	0	0
4.254	-32.76685	202.091827	-14.896218	0.878125	0	-0.267051	0	0	0	0	0	0	-0	0.101112	-0	0	0	0
4.255	-33.534985	221.028091	-15.712926	0.877329	0	-0.268156	0	0	0	0	0	0	-0	0.148375	-0	0	0	0
4.256	-34.273365	241.182571	-16.455109	0.876598	0	-0.269073	0	0	0	0	0	0	-0	0.197553	-0	0	0	0
